<svg width="562" height="438" viewBox="0 0 562 438" fill="none" xmlns="http://www.w3.org/2000/svg">
<g clip-path="url(#clip0_61_761)">
<path d="M259.729 0.438721C222.373 0.438721 187.802 5.56384 156.073 15.7554C124.287 26.0059 96.908 40.6159 73.9959 59.5852C51.0259 78.5545 32.9863 101.235 19.8771 127.569C14.9466 137.466 10.9443 147.716 7.87006 158.379L135.192 202.15C136.7 193.549 139.426 185.36 143.196 177.643C149.635 164.565 158.394 153.312 169.589 143.946C180.726 134.579 194.067 127.274 209.496 122.031C224.984 116.788 241.689 114.196 259.729 114.196H476.088L561.704 0.438721H259.729Z" fill="white"/>
<path d="M259.799 325.1C241.76 325.1 224.996 322.626 209.567 317.618C194.08 312.611 180.68 305.483 169.311 296.351C157.942 287.161 149.126 276.204 142.919 263.302C136.712 250.46 133.58 236.203 133.58 220.474C133.58 214.053 134.102 207.867 135.204 201.858L7.94076 158.147C2.8363 175.938 0.284119 194.73 0.284119 214.583C0.284119 246.454 6.8387 275.968 19.9479 303.185C32.999 330.461 51.0386 354.025 74.0087 373.82C96.9787 393.673 124.357 409.284 156.086 420.595C187.873 431.906 222.444 437.561 259.799 437.561H476.101L561.716 325.1H259.799Z" fill="#018DE0"/>
</g>
<defs>
<clipPath id="clip0_61_761">
<rect width="562" height="438" fill="white"/>
</clipPath>
</defs>
</svg>
